<svg width="278" height="111" viewBox="0 0 278 111" fill="none" xmlns="http://www.w3.org/2000/svg">
<g clip-path="url(#clip0_1_37)">
<path d="M0 1.83926H32.6131V14.1192H14.0827V25.1439H31.6874V36.0049H14.0827V47.7009H33.4511V59.9808H0V1.83926Z" fill="#253746"/>
<path d="M55.4105 51.2047C59.6884 51.2047 61.8685 49.7039 61.8685 47.8646C61.8685 46.1945 60.5265 45.0266 57.4262 44.6882L52.0582 44.1861C44.0939 43.4329 39.3997 38.0024 39.3997 31.7369C39.3997 23.4684 47.1942 17.2029 57.5905 17.2029C64.1307 17.2029 70.3312 20.1282 73.0974 23.8832L66.5572 32.6538C64.6291 29.2318 61.2769 27.2233 56.999 27.2233C53.225 27.2233 51.0449 28.6424 51.0449 30.6454C51.0449 32.2336 52.3869 33.1505 55.7391 33.4834L59.9294 33.8982C68.6496 34.7332 73.5136 39.8308 73.5136 46.6803C73.5136 54.785 66.0533 61.2143 54.9011 61.2143C48.1966 61.2143 41.4867 58.7092 38.3864 54.1137L44.3404 45.2612C47.1066 49.0216 50.7984 51.1938 55.405 51.1938L55.4105 51.2047Z" fill="#253746"/>
<path d="M100.43 61.1433C86.8459 61.1433 77.7094 52.1216 77.7094 39.1758C77.7094 27.065 87.432 17.2083 100.342 17.2083C110.903 17.2083 121.551 24.3907 121.551 38.3408C121.551 39.6779 121.469 41.348 121.299 42.767H91.1184L91.2005 43.0999C92.4603 48.3612 96.6506 50.8663 101.679 50.8663C105.283 50.8663 109.309 48.6942 110.651 45.1848L120.544 50.1132C117.608 56.1276 110.569 61.1379 100.425 61.1379L100.43 61.1433ZM99.9262 27.1469C95.6483 27.1469 92.4658 29.652 91.2882 34.0783H108.477C107.639 29.652 104.538 27.1469 99.9262 27.1469Z" fill="#253746"/>
<path d="M200.778 28.9862C195.41 28.9862 190.804 32.9976 190.804 39.2577C190.804 45.5177 195.498 49.5346 200.866 49.5346C203.884 49.5346 206.65 48.4486 208.83 46.3582V59.6424C206.146 60.6467 203.38 61.1433 200.449 61.1433C186.865 61.1433 177.395 52.2035 177.395 39.1758C177.395 27.065 187.539 17.2083 200.449 17.2083C203.55 17.2083 206.316 17.8742 208.666 18.9603V32.4082C206.738 30.0668 203.889 28.9862 200.784 28.9862H200.778Z" fill="#253746"/>
<path d="M224.414 0C228.522 0 231.792 3.34015 231.792 7.43347C231.792 11.5268 228.522 14.7851 224.414 14.7851C220.305 14.7851 217.035 11.4449 217.035 7.43347C217.035 3.42202 220.305 0 224.414 0ZM217.791 18.5455H231.123V59.9754H217.791V18.5455Z" fill="#253746"/>
<path d="M238.162 48.5304C238.162 40.9278 244.28 35.3336 254.009 35.1644L264.569 34.9952V33.9091C264.569 30.6508 261.885 27.8946 258.029 27.8946C254.173 27.8946 251.659 29.985 251.155 32.823H239.416C240.085 22.8844 248.389 17.2029 258.533 17.2029C270.436 17.2029 277.901 24.2216 277.901 34.4931V60.7231C273.377 60.8923 269.181 59.8062 267.253 55.5437C263.901 59.053 259.119 61.2252 253.253 61.2252C244.867 61.2252 238.162 56.466 238.162 48.525V48.5304ZM256.775 51.7069C260.215 51.7069 262.729 50.7026 264.569 49.0326V43.5202H256.939C253.083 43.5202 250.985 45.3595 250.985 47.6954C250.985 50.0313 253.329 51.7069 256.769 51.7069H256.775Z" fill="#253746"/>
<path d="M151.749 17.1483C163.717 18.1143 172.952 28.5004 173.527 40.251C173.779 45.3213 173.768 51.7341 173.527 56.8099C173.489 57.5685 173.396 58.6328 173.276 59.3805C173.248 59.5551 173.363 59.577 173.095 59.566C171.446 59.4787 169.962 58.0106 169.743 56.406C169.118 46.9531 171.786 37.282 165.749 29.1226C156.52 16.6407 137.129 18.7583 130.847 32.9158C129.39 36.2014 129.483 38.1825 129.094 41.5882C128.88 43.4656 127.149 44.8246 125.293 44.8519C124.876 38.0297 126.213 31.7096 130.463 26.2846C134.325 21.3562 140.734 17.6559 147.066 17.1483C148.331 17.0446 150.473 17.0446 151.743 17.1483H151.749Z" fill="#00AEC7"/>
<path d="M143.878 42.707C144.009 41.3971 143.79 40.5239 144.278 39.1813C145.948 34.5968 152.527 34.4221 154.444 38.9248C155.594 41.6209 154.411 47.2915 153.513 50.0968C152.209 54.1628 149.98 57.8741 147.109 60.9796H152.094C156.131 55.5819 158.525 48.9725 158.64 41.9702C158.853 29.0408 141.807 28.7897 140.208 39.7816C140.065 40.7422 140.158 41.741 140.054 42.6961C139.271 50.0586 132.764 55.9257 125.303 55.7674L125.55 59.5715C135.158 59.4842 142.947 52.2035 143.883 42.7125L143.878 42.707Z" fill="#00AEC7"/>
<path d="M136.494 42.0957C136.85 38.5482 136.757 36.507 139.03 33.467C146.299 23.7304 161.63 28.4786 162.337 40.6221C162.644 45.9107 161.904 51.7014 162.337 56.9299C162.452 58.3435 162.896 59.7243 163.575 60.9851H168.242C167.069 59.7898 166.27 58.1961 166.144 56.5697C165.311 45.9598 169.293 34.4057 158.733 27.2997C148.786 20.6031 134.949 26.4702 132.967 38.2098C132.621 40.2674 132.928 42.2267 132.052 44.1642C130.874 46.7567 128.174 48.4813 125.303 48.4104V52.209C131.093 52.269 135.93 47.7936 136.5 42.0957H136.494Z" fill="#00AEC7"/>
<path d="M141.917 60.9796C147.203 56.5806 150.812 50.1405 151.256 43.1982C151.36 41.5609 151.552 38.9193 149.114 39.2249C147.093 39.4815 147.591 41.8283 147.438 43.1982C146.567 51.1174 141.731 57.7322 134.927 60.9796H141.917Z" fill="#00AEC7"/>
<path d="M179.399 110.88H186.471L187.643 99.0638H180.55L179.399 110.88Z" fill="#FFE948"/>
<path d="M186.58 111H179.262L179.273 110.869L180.435 98.9438H187.774L186.58 111.005V111ZM179.536 110.76H186.361L187.506 99.1894H180.659L179.531 110.76H179.536Z" fill="#FFE948"/>
<path d="M212.774 80.6985H222.036L222.672 73.8163H203.528L202.854 80.6985H209.942H212.774Z" fill="#00ADC6"/>
<path d="M222.146 80.824H202.723L202.734 80.693L203.413 73.6962H222.803L222.14 80.824H222.146ZM202.991 80.5784H221.921L222.54 73.9363H203.637L202.991 80.5784Z" fill="#00ADC6"/>
<path d="M243.563 91.4557L237.149 96.2804C239.405 97.0336 239.783 98.338 239.597 100.046C239.395 102.087 237.855 103.539 236.02 104.211L242.292 108.369C244.795 106.334 246.482 103.468 246.773 100.243C247.173 96.4878 246.022 93.4697 243.563 91.4557Z" fill="#51BFDD"/>
<path d="M242.303 108.522L242.226 108.473L235.752 104.178L235.977 104.096C237.992 103.359 239.296 101.842 239.477 100.035C239.652 98.3871 239.318 97.1373 237.11 96.4005L236.891 96.3295L243.568 91.3084L243.645 91.3684C246.17 93.4369 247.299 96.5096 246.899 100.259C246.614 103.408 245.009 106.323 242.374 108.468L242.303 108.522ZM236.289 104.238L242.292 108.217C244.834 106.121 246.384 103.288 246.658 100.232C247.041 96.6024 245.973 93.6225 243.563 91.614L237.412 96.2422C239.707 97.0936 239.888 98.5781 239.729 100.057C239.548 101.891 238.272 103.441 236.294 104.238H236.289Z" fill="#51BFDD"/>
<path d="M247.967 73.8163L247.337 80.7967H254.973H258.708H265.785H267.998H277.239L277.863 73.8163H247.967Z" fill="#FFE948"/>
<path d="M277.348 80.9222H247.205L247.216 80.7913L247.852 73.6962H277.995L277.984 73.8272L277.348 80.9222ZM247.474 80.6767H277.124L277.732 73.9363H248.082L247.474 80.6767Z" fill="#FFE948"/>
<path d="M200.006 75.7646L199.726 78.9411H187.643L186.443 91.101H197.694L197.415 94.0318H186.164L184.691 108.926H181.557L184.784 75.7646H200H200.006Z" fill="#253746"/>
<path d="M205.308 75.7646H220.524L220.245 78.7446H208.162L206.962 90.7571H218.257L217.977 93.4423H206.727L205.483 105.995H217.977L217.698 108.926H202.065L205.292 75.7646H205.308Z" fill="#253746"/>
<path d="M233.714 106.585C237.587 106.585 241.186 103.998 241.553 100.237C241.92 96.8207 240.123 94.9159 236.711 94.13L232.055 93.1531C227.952 92.4217 225.279 89.3927 225.783 84.6062C226.336 78.8919 231.595 75.1807 236.897 75.1807C241.279 75.1807 245.151 77.4293 246.121 81.4789L243.541 83.531C242.851 79.8198 239.619 78.2097 236.486 78.2097C233.073 78.2097 229.382 80.3601 228.971 84.3661C228.648 87.5862 230.494 89.3981 233.397 89.9821L237.729 90.9591C242.571 91.936 245.387 94.8177 244.834 100.041C244.324 105.657 238.978 109.565 233.353 109.565C228.555 109.565 224.452 107.414 223.302 103.315L225.931 101.263C226.807 104.827 229.897 106.585 233.725 106.585H233.714Z" fill="#253746"/>
<path d="M275.442 78.8428H264.005L261.053 108.926H257.87L260.866 78.8428H249.479L249.758 75.7646H275.716L275.437 78.8428H275.442Z" fill="#253746"/>
</g>
<defs>
<clipPath id="clip0_1_37">
<rect width="278" height="111" fill="white"/>
</clipPath>
</defs>
</svg>
